<?xml version="1.0" standalone="no"?>
<!DOCTYPE svg PUBLIC "-//W3C//DTD SVG 20010904//EN"
 "http://www.w3.org/TR/2001/REC-SVG-20010904/DTD/svg10.dtd">
<svg version="1.0" xmlns="http://www.w3.org/2000/svg"
 width="320.000000pt" height="320.000000pt" viewBox="0 0 320.000000 320.000000"
 preserveAspectRatio="xMidYMid meet">
<metadata>
Created by potrace 1.14, written by Peter Selinger 2001-2017
</metadata>
<g transform="translate(0.000000,320.000000) scale(0.100000,-0.100000)"
fill="#000000" stroke="none">
<path d="M869 2896 c-2 -2 -38 -6 -79 -10 -418 -34 -661 -219 -749 -571 -35
-141 -40 -233 -37 -755 3 -535 6 -586 55 -735 49 -150 128 -269 235 -350 83
-62 269 -133 396 -150 30 -4 64 -10 75 -13 34 -10 1566 -11 1640 -1 127 16
149 20 209 35 286 73 456 229 530 488 47 160 49 198 52 721 1 275 -2 538 -7
585 -37 328 -165 541 -392 649 -70 34 -208 75 -282 86 -27 4 -66 9 -85 13 -39
6 -1554 14 -1561 8z m1456 -525 c76 -13 141 -38 183 -71 27 -22 82 -96 82
-112 0 -4 -132 -7 -292 -6 l-293 3 0 45 0 45 -398 0 c-219 0 -402 -2 -406 -5
-5 -3 -8 -23 -7 -45 l1 -40 -292 -3 c-163 -1 -293 2 -293 6 0 14 50 85 73 105
62 51 141 76 277 86 155 11 1289 5 1365 -8z m-1053 -339 c16 -27 19 -27 97
-25 l81 2 0 -109 0 -109 74 -75 74 -74 71 73 71 72 1 111 2 110 56 0 c114 0
117 1 129 27 l12 25 339 0 c261 0 342 -3 348 -12 13 -23 11 -803 -4 -901 -28
-195 -102 -278 -280 -313 -65 -13 -182 -16 -711 -18 -437 -1 -663 3 -728 11
-205 26 -293 108 -326 308 -11 60 -13 181 -11 490 1 226 3 416 4 423 2 9 78
12 344 12 l341 0 16 -28z m-172 -1437 c0 -61 -4 -85 -12 -86 -52 -4 -496 -4
-508 1 -12 4 -16 23 -16 88 l-1 82 269 0 268 0 0 -85z"/>
<path d="M2281 1938 c-13 -35 -52 -75 -87 -89 l-29 -11 27 -12 c40 -17 69 -47
89 -91 10 -22 18 -33 17 -25 -5 41 66 119 109 120 10 1 -1 11 -28 25 -33 17
-52 36 -67 66 -21 42 -21 42 -31 17z"/>
<path d="M1022 1406 c-15 -27 -38 -51 -64 -66 -41 -23 -41 -23 -17 -32 32 -12
67 -46 86 -82 l15 -30 13 30 c16 38 70 84 98 84 18 1 16 4 -13 19 -45 24 -79
61 -88 95 -7 26 -7 25 -30 -18z"/>
<path d="M738 1043 c-3 -8 -3 -24 1 -65 1 -16 59 -17 861 -17 473 0 860 3 861
7 5 45 6 59 2 70 -4 9 -186 12 -863 12 -473 0 -860 -3 -862 -7z"/>
</g>
</svg>
